<?xml version="1.0" encoding="iso-8859-1"?>
<!-- Uploaded to: SVG Repo, www.svgrepo.com, Generator: SVG Repo Mixer Tools -->
<!DOCTYPE svg PUBLIC "-//W3C//DTD SVG 1.1//EN" "http://www.w3.org/Graphics/SVG/1.1/DTD/svg11.dtd">
<svg fill="#000000" version="1.1" id="Capa_1" xmlns="http://www.w3.org/2000/svg" xmlns:xlink="http://www.w3.org/1999/xlink" 
	 width="800px" height="800px" viewBox="0 0 315.359 315.359"
	 xml:space="preserve">
<g>
	<g>
		<path d="M170.42,153.865c9.128,0,16.531,7.403,16.531,16.537c0,9.133-7.403,16.537-16.531,16.537
			c-9.136,0-16.537-7.404-16.537-16.537C153.883,161.268,161.285,153.865,170.42,153.865z"/>
		<circle cx="144.303" cy="196.507" r="16.528"/>
		<path d="M130.537,159.359c-6.464-6.455-16.937-6.449-23.385,0c-6.449,6.461-6.456,16.921,0,23.395
			c6.449,6.443,16.933,6.443,23.385,0C136.992,176.287,136.992,165.82,130.537,159.359z"/>
		<path d="M144.955,128.425c9.133,0,16.534,7.404,16.534,16.534c0,9.127-7.401,16.531-16.534,16.531
			c-9.13,0-16.534-7.404-16.534-16.531C128.42,135.829,135.824,128.425,144.955,128.425z"/>
		<path d="M197.31,126.993c9.128,0,16.531,7.401,16.531,16.534c0,9.131-7.403,16.534-16.531,16.534
			c-9.133,0-16.537-7.403-16.537-16.534C180.773,134.394,188.177,126.993,197.31,126.993z"/>
		<path d="M304.19,65.195l-54.02-54.01c-14.897-14.907-39.146-14.907-54.062,0L11.18,196.108c-14.907,14.91-14.907,39.157,0,54.062
			l54.016,54.007c14.901,14.904,39.145,14.904,54.049,0L304.19,119.25C319.082,104.346,319.082,80.102,304.19,65.195z
			 M140.541,231.981l-57.163-57.154l91.45-91.438l57.147,57.153L140.541,231.981z"/>
		<circle cx="171.85" cy="118.064" r="16.534"/>
	</g>
</g>
</svg>